# xmcd
#
# Track frame offsets:
#	150
#	19125
#	37854
#	54537
#	70782
#	85953
#	100053
#	115419
#	132090
#	148545
#
# Disc length: 2159 seconds
#
# Revision: 0
# Processed by: cddbd v1.5.2PL0 Copyright (c) Steve Scherf et al.
# Submitted via: EasyCDDAExtractor 16.0.0.1
#
DISCID=80086d0a
DTITLE=Esin İris - Yine Mavi
DYEAR=2014
DGENRE=Pop
TTITLE0=Özledim
TTITLE1=Neyse ne
TTITLE2=Bu gece
TTITLE3=Senin şarkın
TTITLE4=Kadeh
TTITLE5=Kışların
TTITLE6=Kötü kötü şeyler
TTITLE7=Gam ve figan
TTITLE8=Hayalleri öldürdüm
TTITLE9=Olduğu gibi
EXTD=
EXTT0=
EXTT1=
EXTT2=
EXTT3=
EXTT4=
EXTT5=
EXTT6=
EXTT7=
EXTT8=
EXTT9=
PLAYORDER=
